<svg width="250" height="350" viewBox="0 0 250 350" xmlns="http://www.w3.org/2000/svg">
  <rect width="250" height="350" fill="#e17055" />
  <rect x="20" y="20" width="210" height="310" fill="#fab1a0" rx="5" />
  <text x="125" y="175" font-family="Arial, sans-serif" font-size="24" fill="#2d3436" text-anchor="middle" dominant-baseline="middle">Gardens of Delight</text>
  <text x="125" y="210" font-family="Arial, sans-serif" font-size="14" fill="#2d3436" text-anchor="middle" dominant-baseline="middle">by Sophia Chen</text>
  <g transform="translate(100, 80)">
    <path d="M25,0 C25,0 15,15 0,20 C15,25 25,40 25,40 C25,40 35,25 50,20 C35,15 25,0 25,0 Z" fill="#2d3436" opacity="0.6" />
    <path d="M25,10 C25,10 20,20 10,23 C20,26 25,35 25,35 C25,35 30,26 40,23 C30,20 25,10 25,10 Z" fill="#2d3436" opacity="0.6" />
  </g>
</svg>
