<svg width="250" height="350" viewBox="0 0 250 350" xmlns="http://www.w3.org/2000/svg">
  <rect width="250" height="350" fill="#d63031" />
  <rect x="20" y="20" width="210" height="310" fill="#ff7675" rx="5" />
  <text x="125" y="175" font-family="Arial, sans-serif" font-size="24" fill="#2d3436" text-anchor="middle" dominant-baseline="middle">Culinary Journeys</text>
  <text x="125" y="210" font-family="Arial, sans-serif" font-size="14" fill="#2d3436" text-anchor="middle" dominant-baseline="middle">by Amelia Santos</text>
  <g transform="translate(125, 100)">
    <circle cx="0" cy="0" r="25" fill="none" stroke="#2d3436" stroke-width="2" />
    <path d="M0,-25 C15,-25 25,-15 25,0 C25,15 15,25 0,25 C-15,25 -25,15 -25,0 C-25,-15 -15,-25 0,-25 Z M0,-15 C10,-15 15,-10 15,0 C15,10 10,15 0,15 C-10,15 -15,10 -15,0 C-15,-10 -10,-15 0,-15 Z" 
          fill="#2d3436" opacity="0.6" />
  </g>
</svg>
