<svg width="250" height="350" viewBox="0 0 250 350" xmlns="http://www.w3.org/2000/svg">
  <rect width="250" height="350" fill="#fdcb6e" />
  <rect x="20" y="20" width="210" height="310" fill="#ffeaa7" rx="5" />
  <text x="125" y="175" font-family="Arial, sans-serif" font-size="24" fill="#2d3436" text-anchor="middle" dominant-baseline="middle">Whispers in the Wind</text>
  <text x="125" y="210" font-family="Arial, sans-serif" font-size="14" fill="#2d3436" text-anchor="middle" dominant-baseline="middle">by Olivia Willow</text>
  <g transform="translate(125, 100)">
    <path d="M-20,-20 C-10,-30 10,-30 20,-20 C30,-10 30,10 20,20 C10,30 -10,30 -20,20 C-30,10 -30,-10 -20,-20 Z" 
          fill="none" stroke="#2d3436" stroke-width="2" opacity="0.5" />
    <path d="M-10,-10 C-5,-15 5,-15 10,-10 C15,-5 15,5 10,10 C5,15 -5,15 -10,10 C-15,5 -15,-5 -10,-10 Z" 
          fill="none" stroke="#2d3436" stroke-width="2" opacity="0.5" />
    <path d="M0,0 L0,-20 M0,0 L15,15 M0,0 L-15,15 M0,0 L20,0" 
          stroke="#2d3436" stroke-width="2" opacity="0.3" />
  </g>
</svg>
