<svg width="1200" height="600" xmlns="http://www.w3.org/2000/svg">
  <defs>
    <pattern id="books" patternUnits="userSpaceOnUse" width="100" height="100">
      <rect x="10" y="10" width="30" height="80" rx="2" fill="#6c5ce7" opacity="0.3" />
      <rect x="45" y="15" width="25" height="75" rx="2" fill="#e17055" opacity="0.3" />
      <rect x="75" y="20" width="20" height="70" rx="2" fill="#00cec9" opacity="0.3" />
    </pattern>
  </defs>
  <rect width="1200" height="600" fill="url(#books)" />
  
  <g opacity="0.2">
    <circle cx="200" cy="100" r="50" fill="#6c5ce7" />
    <circle cx="950" cy="200" r="80" fill="#e17055" />
    <circle cx="600" cy="500" r="100" fill="#00cec9" />
    <circle cx="300" cy="450" r="40" fill="#fdcb6e" />
    <circle cx="800" cy="350" r="60" fill="#a29bfe" />
    <circle cx="100" cy="300" r="70" fill="#81ecec" />
    <circle cx="1100" cy="450" r="90" fill="#fab1a0" />
  </g>
  
  <path d="M0,200 C200,150 400,250 600,200 C800,150 1000,250 1200,200 L1200,600 L0,600 Z" 
        fill="#6c5ce7" opacity="0.05" />
  <path d="M0,300 C300,250 700,350 1200,300 L1200,600 L0,600 Z" 
        fill="#e17055" opacity="0.05" />
</svg>
