<svg width="50" height="50" viewBox="0 0 50 50" fill="none" xmlns="http://www.w3.org/2000/svg">
    <path d="M25 2C12.85 2 3 11.85 3 24C3 36.15 12.85 46 25 46C37.15 46 47 36.15 47 24C47 11.85 37.15 2 25 2ZM25 8C27.2 8 29 9.8 29 12C29 14.2 27.2 16 25 16C22.8 16 21 14.2 21 12C21 9.8 22.8 8 25 8ZM33 36H17V34C17 30.13 20.13 27 24 27H26C29.87 27 33 30.13 33 34V36Z" fill="currentColor"/>
    <path d="M10 5C6.7 8.3 4.3 12.5 3.4 17.2L6.6 18.6C7.3 14.7 9.3 11.3 12 8.6L10 5Z" fill="currentColor"/>
    <path d="M40 5L38 8.6C40.7 11.3 42.7 14.7 43.4 18.6L46.6 17.2C45.7 12.5 43.3 8.3 40 5Z" fill="currentColor"/>
</svg>
